<?xml version="1.0" encoding="utf-8"?>
<svg viewBox="0 0 51 42" width="51" height="42" xmlns="http://www.w3.org/2000/svg">
  <defs>
    <clipPath id="clippath2" transform="">
      <path d="M 0 255.968 L 270.925 255.968 L 270.925 0 L 0 0 Z" style="fill: none; clip-rule: nonzero;"/>
    </clipPath>
  </defs>
  <g style="clip-path: url('#clippath2');" transform="matrix(0.23284000158309937, 0, 0, -0.23284000158309937, -10.041091264518741, 50.79980620145216)">
    <g transform="translate(214.8352 123.5004)">
      <path d="M 0 0 C 0 21.334 -17.295 38.629 -38.629 38.629 C -59.963 38.629 -77.258 21.334 -77.258 0 C -77.258 -21.334 -59.963 -38.629 -38.629 -38.629 C -17.295 -38.629 0 -21.334 0 0" style="fill: rgb(255, 255, 255); fill-opacity: 1;"/>
    </g>
  </g>
  <g style="clip-path: url('#clippath2');" transform="matrix(0.23284000158309937, 0, 0, -0.23284000158309937, -10.041091264518741, 50.79980620145216)">
    <g transform="translate(133.3055 123.5004)">
      <path d="M 0 0 C 0 21.311 -17.276 38.587 -38.587 38.587 C -59.898 38.587 -77.174 21.311 -77.174 0 C -77.174 -21.311 -59.898 -38.587 -38.587 -38.587 C -17.276 -38.587 0 -21.311 0 0" style="fill: rgb(255, 255, 255); fill-opacity: 1;"/>
    </g>
  </g>
  <g style="clip-path: url('#clippath2');" transform="matrix(0.23284000158309937, 0, 0, -0.23284000158309937, -10.041091264518741, 50.79980620145216)">
    <g transform="translate(73.4156 203.6886)">
      <path d="M 0 0 L 1.514 -12.851 L 56.364 -35.189 Z" style="fill: rgb(234, 82, 75); fill-opacity: 1;"/>
    </g>
  </g>
  <g style="clip-path: url('#clippath2');" transform="matrix(0.23284000158309937, 0, 0, -0.23284000158309937, -10.041091264518741, 50.79980620145216)">
    <g transform="translate(197.5379 203.6886)">
      <path d="M 0 0 L -1.514 -12.851 L -56.364 -35.189 Z" style="fill: rgb(234, 82, 75); fill-opacity: 1;"/>
    </g>
  </g>
  <g style="clip-path: url('#clippath2');" transform="matrix(0.23284000158309937, 0, 0, -0.23284000158309937, -10.041091264518741, 50.79980620145216)">
    <g transform="translate(176.2065 87.3405)">
      <path d="M 0 0 C -19.939 0 -36.16 16.221 -36.16 36.16 C -36.16 56.099 -19.939 72.32 0 72.32 C 19.939 72.32 36.16 56.099 36.16 36.16 C 36.16 16.221 19.939 0 0 0 M -117.648 36.16 C -117.648 56.099 -101.427 72.32 -81.488 72.32 C -61.549 72.32 -45.328 56.099 -45.328 36.16 C -45.328 16.221 -61.549 0 -81.488 0 C -101.427 0 -117.648 16.221 -117.648 36.16 M 31.004 63.593 L 35.915 105.266 L -40.746 74.045 L -40.746 74.045 L -40.746 74.045 L -117.407 105.266 L -112.495 63.59 C -118.971 56.277 -122.915 46.673 -122.915 36.16 C -122.915 19.706 -113.271 5.463 -99.34 -1.217 C -87.65 -21.447 -65.789 -35.061 -40.745 -35.061 C -15.702 -35.061 6.158 -21.448 17.848 -1.219 C 31.781 5.461 41.427 19.704 41.427 36.16 C 41.427 46.674 37.482 56.28 31.004 63.593" style="fill: rgb(234, 82, 75); fill-opacity: 1;"/>
    </g>
  </g>
  <g style="clip-path: url('#clippath2');" transform="matrix(0.23284000158309937, 0, 0, -0.23284000158309937, -10.041091264518741, 50.79980620145216)">
    <g transform="translate(129.3077 100.5136)">
      <path d="M 0 0 L 6.156 -6.155 L 12.311 0 L 6.156 8.287 Z" style="fill: rgb(255, 255, 255); fill-opacity: 1;"/>
    </g>
  </g>
  <g style="clip-path: url('#clippath2');" transform="matrix(0.23284000158309937, 0, 0, -0.23284000158309937, -10.041091264518741, 50.79980620145216)">
    <g transform="translate(111.4225 123.5004)">
      <path d="M 0 0 C 0 9.225 -7.479 16.704 -16.704 16.704 C -25.929 16.704 -33.408 9.225 -33.408 0 C -33.408 -9.225 -25.929 -16.704 -16.704 -16.704 C -7.479 -16.704 0 -9.225 0 0" style="fill: rgb(0, 52, 66); fill-opacity: 1;"/>
    </g>
  </g>
  <g style="clip-path: url('#clippath2');" transform="matrix(0.23284000158309937, 0, 0, -0.23284000158309937, -10.041091264518741, 50.79980620145216)">
    <g transform="translate(192.9102 123.5004)">
      <path d="M 0 0 C 0 9.225 -7.479 16.704 -16.704 16.704 C -25.929 16.704 -33.408 9.225 -33.408 0 C -33.408 -9.225 -25.929 -16.704 -16.704 -16.704 C -7.479 -16.704 0 -9.225 0 0" style="fill: rgb(0, 52, 66); fill-opacity: 1;"/>
    </g>
  </g>
</svg>